<svg width="180" height="120" viewBox="0 0 180 120" fill="none" xmlns="http://www.w3.org/2000/svg">
<path d="M80.0226 61.1964C80.0226 67.7539 74.8927 72.586 68.5971 72.586C62.3015 72.586 57.1716 67.7539 57.1716 61.1964C57.1716 54.5928 62.3015 49.8069 68.5971 49.8069C74.8927 49.8069 80.0226 54.5928 80.0226 61.1964ZM75.021 61.1964C75.021 57.0987 72.0478 54.2949 68.5971 54.2949C65.1463 54.2949 62.1731 57.0987 62.1731 61.1964C62.1731 65.2531 65.1463 68.0979 68.5971 68.0979C72.0478 68.0979 75.021 65.248 75.021 61.1964Z" fill="#0A0A0A"/>
<path d="M104.671 61.1964C104.671 67.7539 99.5409 72.586 93.2453 72.586C86.9498 72.586 81.8199 67.7539 81.8199 61.1964C81.8199 54.5979 86.9498 49.8069 93.2453 49.8069C99.5409 49.8069 104.671 54.5928 104.671 61.1964ZM99.6693 61.1964C99.6693 57.0987 96.6961 54.2949 93.2453 54.2949C89.7946 54.2949 86.8214 57.0987 86.8214 61.1964C86.8214 65.2531 89.7946 68.0979 93.2453 68.0979C96.6961 68.0979 99.6693 65.248 99.6693 61.1964Z" fill="#0A0A0A"/>
<path d="M128.292 50.495V70.9428C128.292 79.354 123.332 82.7893 117.467 82.7893C111.947 82.7893 108.625 79.0972 107.372 76.0778L111.726 74.2651C112.502 76.1189 114.402 78.3064 117.462 78.3064C121.216 78.3064 123.542 75.9905 123.542 71.6309V69.9928H123.368C122.248 71.3741 120.091 72.5808 117.37 72.5808C111.675 72.5808 106.458 67.6204 106.458 61.2375C106.458 54.8084 111.675 49.8069 117.37 49.8069C120.086 49.8069 122.243 51.0136 123.368 52.3539H123.542V50.5001H128.292V50.495ZM123.896 61.2375C123.896 57.227 121.221 54.2949 117.817 54.2949C114.366 54.2949 111.475 57.227 111.475 61.2375C111.475 65.2069 114.366 68.0979 117.817 68.0979C121.221 68.0979 123.896 65.2069 123.896 61.2375Z" fill="#0A0A0A"/>
<path d="M136.123 38.5098V71.8876H131.245V38.5098H136.123Z" fill="#0A0A0A"/>
<path d="M155.133 64.945L159.015 67.5331C157.762 69.3868 154.743 72.5808 149.526 72.5808C143.055 72.5808 138.223 67.5793 138.223 61.1913C138.223 54.4182 143.096 49.8018 148.966 49.8018C154.876 49.8018 157.767 54.5055 158.712 57.0473L159.231 58.3414L144.005 64.6472C145.171 66.9323 146.984 68.0979 149.526 68.0979C152.073 68.0979 153.839 66.845 155.133 64.945ZM143.184 60.8473L153.361 56.6211C152.802 55.1987 151.117 54.2076 149.135 54.2076C146.593 54.2076 143.055 56.4516 143.184 60.8473Z" fill="#0A0A0A"/>
<path d="M38.706 58.2336V53.4015H54.9892C55.1484 54.2437 55.2306 55.2399 55.2306 56.3182C55.2306 59.9436 54.2395 64.4265 51.0455 67.6205C47.9388 70.8556 43.9694 72.5809 38.7111 72.5809C28.9648 72.5809 20.7692 64.6421 20.7692 54.8958C20.7692 45.1495 28.9648 37.2107 38.7111 37.2107C44.1029 37.2107 47.9439 39.3263 50.8298 42.0839L47.4201 45.4935C45.3507 43.5525 42.547 42.0428 38.706 42.0428C31.5888 42.0428 26.0224 47.7786 26.0224 54.8958C26.0224 62.013 31.5888 67.7488 38.706 67.7488C43.3224 67.7488 45.9515 65.8951 47.6358 64.2108C49.0017 62.8449 49.9004 60.8936 50.2547 58.2285L38.706 58.2336Z" fill="#0A0A0A"/>
</svg>
