<svg width="180" height="120" viewBox="0 0 180 120" fill="none" xmlns="http://www.w3.org/2000/svg">
<g filter="url(#filter0_d_9_120)">
<path d="M32.8264 49.8539H40.3608V60.6938C40.3608 62.9688 40.1146 64.7008 39.6241 65.8877C39.1305 67.0767 38.1424 68.084 36.6557 68.9076C35.168 69.7342 33.2644 70.146 30.942 70.146C28.4894 70.146 26.5879 69.8725 25.2384 69.3295C23.89 68.7824 22.8484 67.9851 22.1136 66.9334C21.5222 66.0886 21.1255 65.0833 20.9247 63.9176C20.8702 63.6107 20.8046 63.0576 20.7692 62.6004L28.008 62.232C28.0191 63.1182 28.1129 63.7753 28.2875 64.2042C28.4642 64.6322 28.7609 64.9794 29.1808 65.2428C29.4654 65.4174 29.8732 65.5022 30.401 65.5022C31.2367 65.5022 31.8494 65.2498 32.24 64.7371C32.6316 64.2234 32.8264 63.3604 32.8264 62.1452M93.0355 55.6746C93.956 54.7975 95.1752 54.3544 96.6942 54.3544C98.2778 54.3544 99.5344 54.7904 100.459 55.6534C101.384 56.5204 101.847 57.891 101.847 59.7663C101.847 61.9969 101.404 63.5421 100.518 64.402C99.6303 65.265 98.3777 65.6939 96.7608 65.6939C95.1863 65.6939 93.9428 65.2549 93.0264 64.3758C92.113 63.4967 91.6578 62.0503 91.6578 60.0378C91.6578 58.0071 92.114 56.5537 93.0355 55.6746ZM85.828 65.8342C86.9453 67.3845 88.4028 68.52 90.1983 69.2376C91.9949 69.9542 94.2658 70.3085 97.0101 70.3085C99.709 70.3085 101.962 69.8967 103.768 69.065C105.576 68.2374 106.961 67.0767 107.918 65.5849C108.875 64.0902 109.352 62.1785 109.352 59.8511C109.352 56.6385 108.256 54.1414 106.068 52.363C103.878 50.5806 100.758 49.6914 96.7104 49.6914C92.763 49.6914 89.6826 50.5947 87.4692 52.4115C85.2578 54.2242 84.1516 56.7576 84.1516 60.0136C84.1516 62.343 84.7107 64.2839 85.828 65.8342ZM57.0245 50.0184H48.7916L39.6695 69.9815H47.3412L52.8096 55.1931L55.4873 62.3703H51.5308L49.9069 66.6821H57.0497L58.2659 69.9815H66.1345M118.787 65.6859H122.634C123.931 65.6859 124.848 65.4971 125.38 65.1196C125.913 64.7412 126.179 64.2355 126.179 63.6006C126.179 63.0092 125.917 62.5348 125.389 62.1765C124.862 61.8182 123.936 61.6386 122.616 61.6386H118.787V65.6859ZM118.787 57.8405H122.068C123.244 57.8405 124.063 57.676 124.525 57.346C124.984 57.0139 125.214 56.5375 125.214 55.9118C125.214 55.3334 124.984 54.8802 124.525 54.5532C124.063 54.2262 123.26 54.0637 122.116 54.0637H118.787V57.8405ZM111.206 50.0356H125.292C127.64 50.0356 129.441 50.51 130.699 51.4627C131.955 52.4115 132.585 53.5893 132.585 54.9943C132.585 56.1691 132.137 57.1794 131.239 58.0222C130.643 58.5814 129.768 59.0275 128.617 59.3515C130.367 59.6987 131.655 60.2891 132.477 61.1278C133.303 61.9676 133.715 63.0193 133.715 64.291C133.715 65.3225 133.42 66.2531 132.835 67.0787C132.247 67.9053 131.445 68.5594 130.425 69.0388C129.793 69.3396 128.842 69.5545 127.569 69.6928C125.874 69.8725 124.749 69.9643 124.196 69.9643H111.206M134.189 63.3725L141.333 63.0052C141.486 63.962 141.802 64.6856 142.278 65.1873C143.052 65.9937 144.157 66.3984 145.595 66.3984C146.667 66.3984 147.494 66.1925 148.075 65.7787C148.656 65.3639 148.947 64.8845 148.947 64.3395C148.947 63.8237 148.669 63.3604 148.115 62.9517C147.559 62.5419 146.277 62.1573 144.267 61.794C140.976 61.1854 138.628 60.3789 137.227 59.3717C135.812 58.3664 135.105 57.0846 135.105 55.5222C135.105 54.4977 135.468 53.5308 136.188 52.6204C136.914 51.707 138.002 50.9924 139.453 50.4716C140.906 49.9488 142.897 49.6914 145.425 49.6914C148.53 49.6914 150.895 50.1617 152.524 51.1085C154.152 52.0582 155.122 53.5621 155.432 55.6312L148.36 55.9703C148.17 55.072 147.775 54.415 147.173 54.0032C146.568 53.5944 145.737 53.3885 144.677 53.3885C143.802 53.3885 143.143 53.5409 142.7 53.8457C142.257 54.1515 142.038 54.5189 142.038 54.9549C142.038 55.2729 142.222 55.5585 142.588 55.8128C142.947 56.0773 143.788 56.3215 145.114 56.5496C148.391 57.131 150.744 57.7194 152.163 58.3129C153.582 58.9084 154.614 59.6452 155.261 60.5243C155.906 61.4064 156.231 62.3895 156.231 63.4775C156.231 64.7563 155.8 65.9382 154.937 67.0161C154.075 68.0961 152.871 68.9156 151.324 69.4748C149.778 70.0299 147.827 70.3085 145.475 70.3085C141.343 70.3085 138.48 69.6565 136.89 68.3504C135.299 67.0454 134.399 65.3881 134.189 63.3725Z" fill="#0A0A0A"/>
<path d="M82.358 64.0659C81.3527 64.8603 79.6319 65.6818 77.2863 65.6939C75.7138 65.703 74.4693 65.2549 73.5538 64.3758C72.6394 63.4967 72.1832 62.0503 72.1832 60.0378C72.1832 58.0071 72.6435 56.5537 73.5629 55.6746C74.3653 54.9065 75.8197 54.316 77.1561 54.3059C79.1706 54.2868 80.3313 54.5341 82.3096 55.9562C82.9757 54.6622 84.0385 52.7678 84.851 51.6414C84.639 51.491 84.421 51.3487 84.1919 51.2155C82.4418 50.1981 80.0346 49.6914 76.9724 49.6914C73.0603 49.6914 70.0354 50.5735 67.8967 52.3469C65.758 54.1192 64.6881 56.6536 64.6881 59.953C64.6881 62.4258 65.2967 64.4555 66.5129 66.0422C67.7302 67.6288 69.1755 68.736 70.8499 69.3658C72.5254 69.9956 74.6863 70.3085 77.3307 70.3085C80.4121 70.3085 82.7325 69.7847 84.8904 68.407C84.8904 68.407 83.4632 66.3641 82.3661 64.071M157.35 51.2205H157.645C157.895 51.2205 158.122 51.2084 158.122 50.9197C158.122 50.6795 157.914 50.6412 157.725 50.6412H157.35V51.2205ZM157.068 50.4131H157.769C158.2 50.4131 158.405 50.5826 158.405 50.9318C158.405 51.2609 158.197 51.3971 157.927 51.4264L158.446 52.2278H158.143L157.648 51.4476H157.35V52.2278H157.068V50.4131ZM157.673 52.6467C158.392 52.6467 158.948 52.0754 158.948 51.3124C158.948 50.5705 158.392 49.9992 157.673 49.9992C156.947 49.9992 156.392 50.5705 156.392 51.3124C156.392 52.0754 156.947 52.6467 157.673 52.6467ZM157.673 49.7691C158.521 49.7691 159.231 50.4373 159.231 51.3124C159.231 52.2056 158.521 52.8748 157.673 52.8748C156.823 52.8748 156.11 52.2056 156.11 51.3124C156.11 50.4373 156.823 49.7691 157.673 49.7691Z" fill="#0A0A0A"/>
</g>
<defs>
<filter id="filter0_d_9_120" x="-4" y="0" width="188" height="128" filterUnits="userSpaceOnUse" color-interpolation-filters="sRGB">
<feFlood flood-opacity="0" result="BackgroundImageFix"/>
<feColorMatrix in="SourceAlpha" type="matrix" values="0 0 0 0 0 0 0 0 0 0 0 0 0 0 0 0 0 0 127 0" result="hardAlpha"/>
<feOffset dy="4"/>
<feGaussianBlur stdDeviation="2"/>
<feComposite in2="hardAlpha" operator="out"/>
<feColorMatrix type="matrix" values="0 0 0 0 0 0 0 0 0 0 0 0 0 0 0 0 0 0 0.25 0"/>
<feBlend mode="normal" in2="BackgroundImageFix" result="effect1_dropShadow_9_120"/>
<feBlend mode="normal" in="SourceGraphic" in2="effect1_dropShadow_9_120" result="shape"/>
</filter>
</defs>
</svg>
