<svg width="180" height="120" viewBox="0 0 180 120" fill="none" xmlns="http://www.w3.org/2000/svg">
<path d="M72.5425 50.6561H64.8803C64.6266 50.656 64.3813 50.7464 64.1884 50.9111C63.9955 51.0759 63.8678 51.3041 63.8283 51.5547L60.7293 71.2025C60.7151 71.2937 60.7208 71.3869 60.746 71.4757C60.7712 71.5644 60.8154 71.6467 60.8754 71.7167C60.9355 71.7868 61.01 71.843 61.0939 71.8815C61.1777 71.92 61.2689 71.9399 61.3612 71.9397H65.0192C65.273 71.9399 65.5186 71.8493 65.7115 71.6843C65.9044 71.5193 66.032 71.2908 66.0712 71.0401L66.907 65.7407C66.9463 65.4902 67.0737 65.2618 67.2664 65.0969C67.4591 64.932 67.7043 64.8412 67.9579 64.8411H70.3835C75.4308 64.8411 78.3437 62.3987 79.1045 57.5587C79.4473 55.4412 79.119 53.7775 78.1275 52.6123C77.0385 51.3328 75.107 50.6561 72.5425 50.6561ZM73.4265 57.8321C73.0074 60.5815 70.9067 60.5815 68.8755 60.5815H67.7193L68.5305 55.4468C68.5542 55.2966 68.6308 55.1598 68.7464 55.061C68.862 54.9622 69.0091 54.9079 69.1612 54.9079H69.6911C71.0748 54.9079 72.38 54.9079 73.0545 55.6967C73.4567 56.1672 73.5799 56.8663 73.4265 57.8321ZM95.4461 57.7436H91.7769C91.6249 57.7436 91.4778 57.7979 91.3621 57.8966C91.2465 57.9954 91.1699 58.1322 91.1462 58.2825L90.9837 59.3087L90.7272 58.9368C89.9328 57.7839 88.1615 57.3985 86.3936 57.3985C82.339 57.3985 78.8759 60.4694 78.2015 64.7772C77.8508 66.9261 78.3493 68.9808 79.5683 70.4138C80.6864 71.7313 82.2863 72.2803 84.1898 72.2803C87.4568 72.2803 89.2684 70.1796 89.2684 70.1796L89.1049 71.1992C89.0903 71.2903 89.0956 71.3836 89.1206 71.4724C89.1455 71.5613 89.1894 71.6437 89.2492 71.714C89.3091 71.7843 89.3835 71.8408 89.4672 71.8796C89.551 71.9183 89.6422 71.9385 89.7345 71.9386H93.0396C93.2934 71.9387 93.5389 71.8481 93.7318 71.6832C93.9247 71.5182 94.0523 71.2897 94.0916 71.039L96.0747 58.4808C96.0893 58.3898 96.0839 58.2968 96.0591 58.2081C96.0342 58.1194 95.9904 58.0372 95.9306 57.9671C95.8708 57.897 95.7966 57.8407 95.7129 57.8021C95.6293 57.7635 95.5383 57.7435 95.4461 57.7436ZM90.3317 64.8848C89.9776 66.981 88.3139 68.3882 86.1919 68.3882C85.1264 68.3882 84.275 68.0465 83.7282 67.3989C83.186 66.7558 82.9798 65.8405 83.1524 64.8209C83.4829 62.7426 85.1746 61.2895 87.2641 61.2895C88.306 61.2895 89.153 61.6357 89.711 62.2889C90.27 62.9488 90.4919 63.8697 90.3317 64.8848ZM114.988 57.7436H111.3C111.127 57.7438 110.955 57.7865 110.802 57.868C110.648 57.9494 110.517 58.067 110.419 58.2108L105.333 65.7015L103.178 58.5032C103.112 58.2836 102.977 58.0912 102.793 57.9544C102.608 57.8176 102.385 57.7437 102.156 57.7436H98.5327C98.431 57.7433 98.3307 57.7673 98.2402 57.8136C98.1497 57.86 98.0715 57.9272 98.0122 58.0099C97.9529 58.0925 97.9142 58.1881 97.8993 58.2887C97.8844 58.3893 97.8938 58.4921 97.9266 58.5883L101.988 70.5068L98.1697 75.8969C98.1019 75.9924 98.0616 76.1048 98.0534 76.2218C98.0452 76.3387 98.0693 76.4556 98.1231 76.5597C98.1769 76.6639 98.2583 76.7512 98.3584 76.8121C98.4585 76.873 98.5735 76.9053 98.6907 76.9052H102.373C102.545 76.9054 102.715 76.864 102.867 76.7844C103.02 76.7047 103.15 76.5894 103.248 76.4481L115.512 58.7463C115.578 58.6505 115.617 58.5384 115.625 58.422C115.632 58.3057 115.607 58.1896 115.553 58.0863C115.499 57.983 115.418 57.8964 115.318 57.836C115.218 57.7756 115.104 57.7436 114.988 57.7436Z" fill="#0A0A0A"/>
<path d="M127.195 50.6561H119.532C119.278 50.6563 119.033 50.7468 118.841 50.9115C118.648 51.0762 118.52 51.3043 118.481 51.5547L115.382 71.2026C115.368 71.2936 115.373 71.3866 115.398 71.4753C115.423 71.564 115.467 71.6462 115.527 71.7163C115.587 71.7864 115.661 71.8426 115.745 71.8812C115.828 71.9198 115.919 71.9398 116.012 71.9398H119.944C120.122 71.9395 120.293 71.8759 120.428 71.7605C120.562 71.6451 120.652 71.4854 120.679 71.3101L121.559 65.7408C121.598 65.4902 121.725 65.2619 121.918 65.0969C122.111 64.932 122.356 64.8413 122.609 64.8411H125.034C130.082 64.8411 132.994 62.3987 133.756 57.5587C134.1 55.4412 133.769 53.7775 132.778 52.6123C131.69 51.3329 129.76 50.6561 127.195 50.6561ZM128.079 57.8321C127.661 60.5815 125.56 60.5815 123.528 60.5815H122.373L123.185 55.4468C123.209 55.2966 123.285 55.1597 123.4 55.0608C123.516 54.962 123.663 54.9078 123.815 54.9079H124.345C125.727 54.9079 127.034 54.9079 127.708 55.6967C128.11 56.1672 128.233 56.8663 128.079 57.8321ZM150.098 57.7436H146.431C146.279 57.7432 146.131 57.7973 146.016 57.8962C145.9 57.9951 145.824 58.1322 145.801 58.2825L145.639 59.3087L145.381 58.9368C144.587 57.7839 142.816 57.3985 141.048 57.3985C136.994 57.3985 133.532 60.4694 132.857 64.7773C132.508 66.9261 133.004 68.9809 134.223 70.4138C135.344 71.7314 136.941 72.2803 138.845 72.2803C142.112 72.2803 143.923 70.1797 143.923 70.1797L143.76 71.1992C143.745 71.2905 143.751 71.384 143.776 71.473C143.801 71.562 143.845 71.6446 143.905 71.7149C143.965 71.7852 144.04 71.8417 144.124 71.8803C144.208 71.9189 144.299 71.9388 144.392 71.9386H147.696C147.949 71.9385 148.194 71.8478 148.387 71.6828C148.58 71.5179 148.707 71.2896 148.746 71.039L150.731 58.4808C150.745 58.3896 150.739 58.2964 150.714 58.2076C150.688 58.1188 150.644 58.0366 150.584 57.9666C150.524 57.8965 150.449 57.8403 150.365 57.8018C150.281 57.7634 150.19 57.7435 150.098 57.7436ZM144.983 64.8848C144.631 66.981 142.965 68.3882 140.843 68.3882C139.78 68.3882 138.926 68.0465 138.38 67.3989C137.837 66.7558 137.634 65.8405 137.804 64.8209C138.137 62.7427 139.826 61.2895 141.916 61.2895C142.958 61.2895 143.805 61.6357 144.362 62.2889C144.924 62.9488 145.146 63.8698 144.983 64.8848ZM154.423 51.195L151.279 71.2026C151.264 71.2936 151.27 71.3866 151.295 71.4753C151.32 71.564 151.364 71.6462 151.423 71.7163C151.483 71.7864 151.558 71.8426 151.641 71.8812C151.725 71.9198 151.816 71.9398 151.908 71.9398H155.07C155.595 71.9398 156.041 71.5588 156.122 71.0401L159.223 51.3934C159.237 51.3023 159.232 51.2092 159.207 51.1204C159.182 51.0317 159.138 50.9494 159.078 50.8793C159.018 50.8091 158.944 50.7527 158.86 50.714C158.777 50.6753 158.686 50.6552 158.593 50.655H155.053C154.901 50.6556 154.754 50.7102 154.639 50.8092C154.523 50.9081 154.447 51.0449 154.423 51.195Z" fill="#0A0A0A"/>
<path d="M28.9098 75.758L29.4958 72.0361L28.1905 72.0059H21.9579L26.2893 44.5423C26.3022 44.4584 26.3448 44.3819 26.4094 44.3268C26.474 44.2717 26.5562 44.2416 26.6411 44.2421H37.1501C40.6389 44.2421 43.0466 44.9681 44.3037 46.401C44.893 47.0732 45.2683 47.7757 45.4498 48.5488C45.6403 49.3599 45.6436 50.329 45.4576 51.511L45.4442 51.5973V52.3546L46.0335 52.6885C46.4834 52.9164 46.8878 53.2248 47.2267 53.5983C47.7309 54.173 48.0569 54.9035 48.1947 55.7695C48.337 56.6602 48.2899 57.7201 48.0569 58.92C47.788 60.3003 47.3533 61.5024 46.7662 62.4861C46.2482 63.3673 45.5518 64.1306 44.7216 64.7269C43.9418 65.2803 43.0152 65.7005 41.9677 65.9693C40.9526 66.2337 39.7953 66.3671 38.5259 66.3671H37.7081C37.1232 66.3671 36.5552 66.5777 36.1093 66.9553C35.664 67.3369 35.3686 67.8641 35.2757 68.4431L35.2141 68.7781L34.1789 75.3379L34.1319 75.5787C34.1195 75.6549 34.0982 75.693 34.0669 75.7188C34.0365 75.7436 33.9986 75.7574 33.9593 75.758H28.9098Z" fill="#0A0A0A"/>
<path d="M46.5914 51.6847C46.5601 51.8852 46.5242 52.0903 46.4839 52.3009C45.098 59.4163 40.3566 61.8744 34.301 61.8744H31.2178C30.4772 61.8744 29.8532 62.4122 29.7378 63.1427L28.1592 73.1543L27.7121 75.9922C27.6943 76.1047 27.7011 76.2198 27.7321 76.3295C27.763 76.4392 27.8173 76.5409 27.8914 76.6276C27.9654 76.7142 28.0573 76.7838 28.1607 76.8316C28.2642 76.8793 28.3768 76.9041 28.4908 76.9042H33.9593C34.6069 76.9042 35.157 76.4336 35.2589 75.795L35.3127 75.5171L36.3423 68.9832L36.4084 68.6246C36.5093 67.9838 37.0605 67.5132 37.7081 67.5132H38.5259C43.8241 67.5132 47.9717 65.3621 49.184 59.1374C49.6904 56.537 49.4282 54.3657 48.0883 52.8387C47.6636 52.3663 47.1563 51.9752 46.5914 51.6847Z" fill="#0A0A0A"/>
<path d="M45.1417 51.1065C44.6992 50.9785 44.249 50.8786 43.7939 50.8073C42.8946 50.6691 41.9857 50.6028 41.0759 50.609H32.8389C32.5255 50.6088 32.2222 50.7207 31.9841 50.9245C31.7459 51.1284 31.5886 51.4107 31.5404 51.7204L29.7882 62.8188L29.7378 63.1426C29.7924 62.7893 29.9716 62.4672 30.2431 62.2346C30.5145 62.0019 30.8603 61.8742 31.2178 61.8743H34.301C40.3566 61.8743 45.098 59.4151 46.4839 52.3008C46.5253 52.0902 46.5601 51.8851 46.5914 51.6846C46.2257 51.4928 45.8446 51.332 45.452 51.204C45.3491 51.1698 45.2456 51.1373 45.1417 51.1065Z" fill="#0A0A0A"/>
<path d="M31.5403 51.7204C31.5881 51.4106 31.7454 51.1281 31.9836 50.9244C32.2219 50.7207 32.5253 50.6092 32.8388 50.6101H41.0758C42.0516 50.6101 42.9625 50.674 43.7938 50.8085C44.3563 50.8969 44.9111 51.0291 45.453 51.2039C45.862 51.3395 46.2418 51.4997 46.5925 51.6846C47.0048 49.0551 46.5891 47.2647 45.1674 45.6436C43.6 43.8588 40.771 43.0947 37.1511 43.0947H26.6421C25.9026 43.0947 25.2719 43.6325 25.1576 44.3641L20.7803 72.11C20.7599 72.2388 20.7677 72.3705 20.8031 72.496C20.8384 72.6216 20.9006 72.738 20.9852 72.8372C21.0699 72.9364 21.175 73.0161 21.2934 73.0708C21.4118 73.1256 21.5406 73.154 21.671 73.1542H28.1591L29.7881 62.8188L31.5403 51.7204Z" fill="#0A0A0A"/>
</svg>
